<?xml version="1.0" encoding="iso-8859-1"?>
<!-- Generator: Adobe Illustrator 19.0.0, SVG Export Plug-In . SVG Version: 6.00 Build 0)  -->
<svg version="1.1" id="Capa_1" xmlns="http://www.w3.org/2000/svg" xmlns:xlink="http://www.w3.org/1999/xlink" x="0px" y="0px"
	 viewBox="0 0 512.001 512.001" style="enable-background:new 0 0 512.001 512.001;" xml:space="preserve">
<path style="fill:#787780;" d="M76,260.43c-1.729,0-3.457-0.293-5.142-0.908C64.94,257.369,61,251.729,61,245.43V45.065
	c0-17.461,9.771-33.003,25.503-40.562c15.732-7.573,33.955-5.479,47.607,5.42l67.852,55.272c3.149,2.534,5.156,6.226,5.552,10.254
	c0.396,4.014-0.85,8.027-3.457,11.118L87.47,255.084C84.569,258.541,80.336,260.43,76,260.43z"/>
<path style="fill:#E5E5E5;" d="M91,45.065c0-5.918,3.179-10.972,8.496-13.521c2.139-1.025,4.336-1.538,6.563-1.538
	c3.354,0,6.577,1.157,9.331,3.369l56.938,46.542L91,197.31V45.065z"/>
<path style="fill:#57555C;" d="M436,260.43c-4.336,0-8.569-1.89-11.47-5.347L307.943,86.568c-2.607-3.091-3.853-7.104-3.457-11.118
	c0.396-4.028,2.402-7.72,5.552-10.254L377.89,9.924c13.652-10.898,31.86-12.993,47.607-5.42C441.229,12.062,451,27.604,451,45.065
	V245.43c0,6.299-3.94,11.938-9.858,14.092C439.457,260.137,437.729,260.43,436,260.43z"/>
<path style="fill:#D9D9D9;" d="M339.76,79.844l56.865-46.498c2.74-2.183,5.963-3.34,9.302-3.34c2.241,0,4.438,0.513,6.563,1.538
	c5.332,2.549,8.511,7.603,8.511,13.521v152.362L339.76,79.844z"/>
<path style="fill:#8B8892;" d="M481,286.001v151c0,4.799-2.401,9.3-6.301,12.299c-3.9,2.701-9,3.6-13.499,1.8l-62.1-20.7l9.899,32.1
	c1.8,5.4,0.3,11.4-3.9,15.3c-4.199,4.2-10.499,5.099-15.599,3.3l-67.8-25.499H256l-66.301-0.3l-78.9,25.8
	c-5.099,1.8-10.8,0.601-15-2.999c-3.898-3.6-5.7-9.3-4.499-14.399l7.5-31.802l-47.1,18.9c-4.799,2.1-9.901,1.501-14.101-1.199
	C33.401,446.601,31,442.1,31,437.001v-151c0-124.2,100.8-225,225-225S481,161.801,481,286.001z"/>
<path style="fill:#787780;" d="M481,286.001v151c0,4.799-2.401,9.3-6.301,12.299c-3.9,2.701-9,3.6-13.499,1.8l-62.1-20.7l9.899,32.1
	c1.8,5.4,0.3,11.4-3.9,15.3c-4.199,4.2-10.499,5.099-15.599,3.3l-67.8-25.499H256v-394.6C380.2,61.001,481,161.801,481,286.001z"/>
<path style="fill:#E5E5E5;" d="M391,226.301c-1.5-36.901-27.9-68.701-62.401-74.401c-22.2-3.3-44.399,2.701-61.199,17.1
	c-4.2,3.6-8.101,7.5-11.4,12.001c-3.3-4.501-7.2-8.401-11.4-12.001c-16.8-14.399-39-20.4-61.199-17.1
	C148.9,157.6,122.5,189.4,121,226.301c-18.6,14.099-30,36.299-30,59.7v61c0,8.399,6.599,15,15,15h47.701l15.899,79.2
	c8.1,41.1,44.399,70.8,86.4,70.8s78.3-29.7,86.4-70.8l15.899-79.2H406c8.401,0,15-6.601,15-15v-61
	C421,262.6,409.6,240.4,391,226.301z"/>
<path style="fill:#D9D9D9;" d="M421,286.001v61c0,8.399-6.599,15-15,15h-47.701l-15.899,79.2c-8.1,41.1-44.399,70.8-86.4,70.8v-331
	c3.3-4.501,7.2-8.401,11.4-12.001c16.8-14.399,39-20.4,61.199-17.1C363.1,157.6,389.5,189.4,391,226.301
	C409.6,240.4,421,262.6,421,286.001z"/>
<g>
	<path style="fill:#787780;" d="M271,452.001v45c0,8.399-6.599,15-15,15c-8.401,0-15-6.601-15-15v-45c0-8.401,6.599-15,15-15
		C264.401,437.001,271,443.6,271,452.001z"/>
	<path style="fill:#787780;" d="M256,369.501c-24.901,0-45,20.099-45,45c0,3.3,1.199,6.599,3.3,9.3l30,37.5
		c2.701,3.6,7.2,5.7,11.7,5.7c4.5,0,9-2.1,11.7-5.7l30-37.5c2.1-2.701,3.3-6,3.3-9.3C301,389.6,280.901,369.501,256,369.501z"/>
</g>
<circle style="fill:#57555C;" cx="196" cy="286.001" r="15"/>
<circle style="fill:#3C3A41;" cx="316" cy="286.001" r="15"/>
<g>
	<path style="fill:#57555C;" d="M301,414.501c0,3.3-1.199,6.599-3.3,9.3l-30,37.5c-2.701,3.6-7.2,5.7-11.7,5.7v-97.5
		C280.901,369.501,301,389.6,301,414.501z"/>
	<path style="fill:#57555C;" d="M271,452.001v45c0,8.399-6.599,15-15,15v-75C264.401,437.001,271,443.6,271,452.001z"/>
</g>
<g>
</g>
<g>
</g>
<g>
</g>
<g>
</g>
<g>
</g>
<g>
</g>
<g>
</g>
<g>
</g>
<g>
</g>
<g>
</g>
<g>
</g>
<g>
</g>
<g>
</g>
<g>
</g>
<g>
</g>
</svg>
